<svg width="303" height="36" viewBox="0 0 303 36" fill="none" xmlns="http://www.w3.org/2000/svg">
<path fill-rule="evenodd" clip-rule="evenodd" d="M33.272 17.48H24.872V26.696C23.272 27.432 21.56 27.8 19.736 27.8C17.88 27.8 16.232 27.4 14.792 26.6C13.352 25.768 12.232 24.632 11.432 23.192C10.632 21.72 10.232 20.056 10.232 18.2C10.232 15.288 11.112 12.968 12.872 11.24C14.632 9.48 16.952 8.6 19.832 8.6C23 8.6 25.72 9.848 27.992 12.344L34.04 6.872C32.376 4.888 30.296 3.368 27.8 2.312C25.304 1.256 22.488 0.727997 19.352 0.727997C15.768 0.727997 12.552 1.48 9.704 2.984C6.856 4.456 4.632 6.52 3.032 9.176C1.432 11.832 0.632004 14.84 0.632004 18.2C0.632004 21.56 1.432 24.568 3.032 27.224C4.632 29.88 6.84 31.96 9.656 33.464C12.472 34.936 15.64 35.672 19.16 35.672C21.656 35.672 24.152 35.304 26.648 34.568C29.144 33.832 31.352 32.776 33.272 31.4V17.48ZM46.6415 33.416C49.4895 34.92 52.6895 35.672 56.2415 35.672C59.7935 35.672 62.9775 34.92 65.7935 33.416C68.6415 31.912 70.8655 29.832 72.4655 27.176C74.0975 24.52 74.9135 21.528 74.9135 18.2C74.9135 14.872 74.0975 11.88 72.4655 9.224C70.8655 6.568 68.6415 4.488 65.7935 2.984C62.9775 1.48 59.7935 0.727997 56.2415 0.727997C52.6895 0.727997 49.4895 1.48 46.6415 2.984C43.8255 4.488 41.6015 6.568 39.9695 9.224C38.3695 11.88 37.5695 14.872 37.5695 18.2C37.5695 21.528 38.3695 24.52 39.9695 27.176C41.6015 29.832 43.8255 31.912 46.6415 33.416ZM60.8495 26.6C59.4735 27.4 57.9375 27.8 56.2415 27.8C54.5455 27.8 53.0095 27.4 51.6335 26.6C50.2575 25.8 49.1695 24.68 48.3695 23.24C47.5695 21.768 47.1695 20.088 47.1695 18.2C47.1695 16.312 47.5695 14.648 48.3695 13.208C49.1695 11.736 50.2575 10.6 51.6335 9.8C53.0095 9 54.5455 8.6 56.2415 8.6C57.9375 8.6 59.4735 9 60.8495 9.8C62.2255 10.6 63.3135 11.736 64.1135 13.208C64.9135 14.648 65.3135 16.312 65.3135 18.2C65.3135 20.088 64.9135 21.768 64.1135 23.24C63.3135 24.68 62.2255 25.8 60.8495 26.6ZM76.2545 8.936H86.5745V35H96.0785V8.936H106.351V1.4H76.2545V8.936ZM116.767 33.416C119.615 34.92 122.814 35.672 126.367 35.672C129.919 35.672 133.103 34.92 135.919 33.416C137.19 32.7445 138.337 31.9582 139.36 31.0571V35H166.336V27.656H148.768V21.512H163.696V14.408H148.768V8.744H165.712V1.4H139.36V5.34294C138.337 4.44181 137.19 3.65549 135.919 2.984C133.103 1.48 129.919 0.727997 126.367 0.727997C122.814 0.727997 119.615 1.48 116.767 2.984C113.951 4.488 111.727 6.568 110.094 9.224C108.494 11.88 107.695 14.872 107.695 18.2C107.695 21.528 108.494 24.52 110.094 27.176C111.727 29.832 113.951 31.912 116.767 33.416ZM139.36 5.34294V31.0571C140.628 29.9399 141.705 28.6462 142.59 27.176C144.223 24.52 145.038 21.528 145.038 18.2C145.038 14.872 144.223 11.88 142.59 9.224C141.705 7.75383 140.628 6.46015 139.36 5.34294ZM130.975 26.6C129.598 27.4 128.062 27.8 126.367 27.8C124.671 27.8 123.134 27.4 121.758 26.6C120.382 25.8 119.295 24.68 118.494 23.24C117.695 21.768 117.295 20.088 117.295 18.2C117.295 16.312 117.695 14.648 118.494 13.208C119.295 11.736 120.382 10.6 121.758 9.8C123.134 9 124.671 8.6 126.367 8.6C128.062 8.6 129.598 9 130.975 9.8C132.351 10.6 133.439 11.736 134.238 13.208C135.038 14.648 135.439 16.312 135.439 18.2C135.439 20.088 135.038 21.768 134.238 23.24C133.439 24.68 132.351 25.8 130.975 26.6ZM202.475 17.48H194.075V26.696C192.475 27.432 190.763 27.8 188.939 27.8C187.083 27.8 185.435 27.4 183.995 26.6C182.555 25.768 181.435 24.632 180.635 23.192C179.835 21.72 179.435 20.056 179.435 18.2C179.435 15.288 180.315 12.968 182.075 11.24C183.835 9.48 186.155 8.6 189.035 8.6C192.203 8.6 194.923 9.848 197.195 12.344L203.243 6.872C201.579 4.888 199.499 3.368 197.003 2.312C194.507 1.256 191.691 0.727997 188.555 0.727997C184.971 0.727997 181.755 1.48 178.907 2.984C176.059 4.456 173.835 6.52 172.235 9.176C170.635 11.832 169.835 14.84 169.835 18.2C169.835 21.56 170.635 24.568 172.235 27.224C173.835 29.88 176.043 31.96 178.859 33.464C181.675 34.936 184.843 35.672 188.363 35.672C190.859 35.672 193.355 35.304 195.851 34.568C198.347 33.832 200.555 32.776 202.475 31.4V17.48ZM226.501 35V22.952L239.365 1.4H230.149L222.181 14.744L214.213 1.4H204.181L216.997 22.808V35H226.501ZM264.921 2.936C262.681 1.912 260.041 1.4 257.001 1.4H241.641V35H251.145V26.216H257.001C260.041 26.216 262.681 25.72 264.921 24.728C267.161 23.704 268.889 22.264 270.105 20.408C271.321 18.552 271.929 16.36 271.929 13.832C271.929 11.304 271.321 9.112 270.105 7.256C268.889 5.368 267.161 3.928 264.921 2.936ZM260.841 17.48C259.849 18.312 258.377 18.728 256.425 18.728H251.145V8.888H256.425C258.377 8.888 259.849 9.32 260.841 10.184C261.833 11.048 262.329 12.264 262.329 13.832C262.329 15.4 261.833 16.616 260.841 17.48ZM272.551 8.936H282.871V35H292.375V8.936H302.647V1.4H272.551V8.936Z" fill="white"/>
</svg>
