<svg width="210" height="38" viewBox="0 0 210 38" fill="none" xmlns="http://www.w3.org/2000/svg">
<path d="M105.684 21.9082H95.5586V28.7637H107.441V33H90.2852V7.40625H107.406V11.6777H95.5586V17.7773H105.684V21.9082ZM130.785 29.7656C129.836 30.9023 128.494 31.7871 126.76 32.4199C125.025 33.041 123.104 33.3516 120.994 33.3516C118.779 33.3516 116.834 32.8711 115.158 31.9102C113.494 30.9375 112.205 29.5312 111.291 27.6914C110.389 25.8516 109.926 23.6895 109.902 21.2051V19.4648C109.902 16.9102 110.33 14.7012 111.186 12.8379C112.053 10.9629 113.295 9.5332 114.912 8.54883C116.541 7.55273 118.445 7.05469 120.625 7.05469C123.66 7.05469 126.033 7.78125 127.744 9.23438C129.455 10.6758 130.469 12.7793 130.785 15.5449H125.652C125.418 14.0801 124.896 13.0078 124.088 12.3281C123.291 11.6484 122.189 11.3086 120.783 11.3086C118.99 11.3086 117.625 11.9824 116.688 13.3301C115.75 14.6777 115.275 16.6816 115.264 19.3418V20.9766C115.264 23.6602 115.773 25.6875 116.793 27.0586C117.812 28.4297 119.307 29.1152 121.275 29.1152C123.256 29.1152 124.668 28.6934 125.512 27.8496V23.4375H120.713V19.5527H130.785V29.7656ZM143.898 18.9375L149.225 7.40625H154.99L146.588 23.7188V33H141.227V23.7188L132.824 7.40625H138.607L143.898 18.9375ZM162.602 23.9824V33H157.328V7.40625H167.312C169.234 7.40625 170.922 7.75781 172.375 8.46094C173.84 9.16406 174.965 10.166 175.75 11.4668C176.535 12.7559 176.928 14.2266 176.928 15.8789C176.928 18.3867 176.066 20.3672 174.344 21.8203C172.633 23.2617 170.26 23.9824 167.225 23.9824H162.602ZM162.602 19.7109H167.312C168.707 19.7109 169.768 19.3828 170.494 18.7266C171.232 18.0703 171.602 17.1328 171.602 15.9141C171.602 14.6602 171.232 13.6465 170.494 12.873C169.756 12.0996 168.736 11.7012 167.436 11.6777H162.602V19.7109ZM199.832 11.6777H191.992V33H186.719V11.6777H178.984V7.40625H199.832V11.6777ZM198.25 30.5039C198.25 29.6953 198.52 29.0391 199.059 28.5352C199.609 28.0312 200.295 27.7793 201.115 27.7793C201.947 27.7793 202.633 28.0312 203.172 28.5352C203.723 29.0391 203.998 29.6953 203.998 30.5039C203.998 31.3008 203.729 31.9512 203.189 32.4551C202.65 32.9473 201.959 33.1934 201.115 33.1934C200.283 33.1934 199.598 32.9473 199.059 32.4551C198.52 31.9512 198.25 31.3008 198.25 30.5039Z" fill="#C69669"/>
<path d="M22.5352 29.7656C21.5859 30.9023 20.2441 31.7871 18.5098 32.4199C16.7754 33.041 14.8535 33.3516 12.7441 33.3516C10.5293 33.3516 8.58398 32.8711 6.9082 31.9102C5.24414 30.9375 3.95508 29.5312 3.04102 27.6914C2.13867 25.8516 1.67578 23.6895 1.65234 21.2051V19.4648C1.65234 16.9102 2.08008 14.7012 2.93555 12.8379C3.80273 10.9629 5.04492 9.5332 6.66211 8.54883C8.29102 7.55273 10.1953 7.05469 12.375 7.05469C15.4102 7.05469 17.7832 7.78125 19.4941 9.23438C21.2051 10.6758 22.2188 12.7793 22.5352 15.5449H17.4023C17.168 14.0801 16.6465 13.0078 15.8379 12.3281C15.041 11.6484 13.9395 11.3086 12.5332 11.3086C10.7402 11.3086 9.375 11.9824 8.4375 13.3301C7.5 14.6777 7.02539 16.6816 7.01367 19.3418V20.9766C7.01367 23.6602 7.52344 25.6875 8.54297 27.0586C9.5625 28.4297 11.0566 29.1152 13.0254 29.1152C15.0059 29.1152 16.418 28.6934 17.2617 27.8496V23.4375H12.4629V19.5527H22.5352V29.7656ZM47.8477 20.7832C47.8477 23.3027 47.4023 25.5117 46.5117 27.4102C45.6211 29.3086 44.3438 30.7734 42.6797 31.8047C41.0273 32.8359 39.1289 33.3516 36.9844 33.3516C34.8633 33.3516 32.9707 32.8418 31.3066 31.8223C29.6426 30.8027 28.3535 29.3496 27.4395 27.4629C26.5254 25.5645 26.0625 23.3848 26.0508 20.9238V19.6582C26.0508 17.1387 26.502 14.9238 27.4043 13.0137C28.3184 11.0918 29.6016 9.62109 31.2539 8.60156C32.918 7.57031 34.8164 7.05469 36.9492 7.05469C39.082 7.05469 40.9746 7.57031 42.627 8.60156C44.291 9.62109 45.5742 11.0918 46.4766 13.0137C47.3906 14.9238 47.8477 17.1328 47.8477 19.6406V20.7832ZM42.5039 19.623C42.5039 16.9395 42.0234 14.9004 41.0625 13.5059C40.1016 12.1113 38.7305 11.4141 36.9492 11.4141C35.1797 11.4141 33.8145 12.1055 32.8535 13.4883C31.8926 14.8594 31.4062 16.875 31.3945 19.5352V20.7832C31.3945 23.3965 31.875 25.4238 32.8359 26.8652C33.7969 28.3066 35.1797 29.0273 36.9844 29.0273C38.7539 29.0273 40.1133 28.3359 41.0625 26.9531C42.0117 25.5586 42.4922 23.5312 42.5039 20.8711V19.623ZM69.4336 11.6777H61.5938V33H56.3203V11.6777H48.5859V7.40625H69.4336V11.6777ZM92.9883 20.7832C92.9883 23.3027 92.543 25.5117 91.6523 27.4102C90.7617 29.3086 89.4844 30.7734 87.8203 31.8047C86.168 32.8359 84.2695 33.3516 82.125 33.3516C80.0039 33.3516 78.1113 32.8418 76.4473 31.8223C74.7832 30.8027 73.4941 29.3496 72.5801 27.4629C71.666 25.5645 71.2031 23.3848 71.1914 20.9238V19.6582C71.1914 17.1387 71.6426 14.9238 72.5449 13.0137C73.459 11.0918 74.7422 9.62109 76.3945 8.60156C78.0586 7.57031 79.957 7.05469 82.0898 7.05469C84.2227 7.05469 86.1152 7.57031 87.7676 8.60156C89.4316 9.62109 90.7148 11.0918 91.6172 13.0137C92.5312 14.9238 92.9883 17.1328 92.9883 19.6406V20.7832ZM87.6445 19.623C87.6445 16.9395 87.1641 14.9004 86.2031 13.5059C85.2422 12.1113 83.8711 11.4141 82.0898 11.4141C80.3203 11.4141 78.9551 12.1055 77.9941 13.4883C77.0332 14.8594 76.5469 16.875 76.5352 19.5352V20.7832C76.5352 23.3965 77.0156 25.4238 77.9766 26.8652C78.9375 28.3066 80.3203 29.0273 82.125 29.0273C83.8945 29.0273 85.2539 28.3359 86.2031 26.9531C87.1523 25.5586 87.6328 23.5312 87.6445 20.8711V19.623Z" fill="white"/>
<path d="M22.5352 29.7656L23.3027 30.4066L23.5352 30.1282V29.7656H22.5352ZM18.5098 32.4199L18.8469 33.3614L18.8525 33.3593L18.5098 32.4199ZM6.9082 31.9102L6.40356 32.7735L6.41076 32.7777L6.9082 31.9102ZM3.04102 27.6914L2.14317 28.1318L2.14545 28.1363L3.04102 27.6914ZM1.65234 21.2051L0.652299 21.2051L0.652388 21.2145L1.65234 21.2051ZM2.93555 12.8379L2.02792 12.4181L2.02675 12.4206L2.93555 12.8379ZM6.66211 8.54883L7.18206 9.40303L7.18381 9.40196L6.66211 8.54883ZM19.4941 9.23438L18.8468 9.99658L18.8498 9.99915L19.4941 9.23438ZM22.5352 15.5449V16.5449H23.6561L23.5287 15.4313L22.5352 15.5449ZM17.4023 15.5449L16.4149 15.7029L16.5496 16.5449H17.4023V15.5449ZM15.8379 12.3281L15.1889 13.089L15.1944 13.0936L15.8379 12.3281ZM7.01367 19.3418L6.01367 19.3374V19.3418H7.01367ZM17.2617 27.8496L17.9688 28.5567L18.2617 28.2638V27.8496H17.2617ZM17.2617 23.4375H18.2617V22.4375H17.2617V23.4375ZM12.4629 23.4375H11.4629V24.4375H12.4629V23.4375ZM12.4629 19.5527V18.5527H11.4629V19.5527H12.4629ZM22.5352 19.5527H23.5352V18.5527H22.5352V19.5527ZM21.7676 29.1247C20.9559 30.0967 19.7763 30.8933 18.167 31.4805L18.8525 33.3593C20.712 32.6809 22.216 31.708 23.3027 30.4066L21.7676 29.1247ZM18.1726 31.4785C16.5609 32.0556 14.755 32.3516 12.7441 32.3516V34.3516C14.952 34.3516 16.9899 34.0264 18.8469 33.3614L18.1726 31.4785ZM12.7441 32.3516C10.6779 32.3516 8.909 31.9047 7.40565 31.0427L6.41076 32.7777C8.25897 33.8375 10.3807 34.3516 12.7441 34.3516V32.3516ZM7.41283 31.0468C5.92834 30.1791 4.76989 28.9238 3.93658 27.2465L2.14545 28.1363C3.14026 30.1387 4.55994 31.6959 6.40358 32.7735L7.41283 31.0468ZM3.93885 27.2511C3.11481 25.5709 2.67462 23.5618 2.6523 21.1956L0.652388 21.2145C0.676941 23.8171 1.16253 26.1322 2.14318 28.1317L3.93885 27.2511ZM2.65234 21.2051V19.4648H0.652344V21.2051H2.65234ZM2.65234 19.4648C2.65234 17.0197 3.06185 14.9595 3.84434 13.2551L2.02675 12.4206C1.0983 14.4429 0.652344 16.8006 0.652344 19.4648H2.65234ZM3.84317 13.2577C4.63502 11.5456 5.74977 10.2749 7.18206 9.40303L6.14216 7.69463C4.34007 8.79156 2.97045 10.3802 2.02792 12.4181L3.84317 13.2577ZM7.18381 9.40196C8.63438 8.51492 10.3528 8.05469 12.375 8.05469V6.05469C10.0378 6.05469 7.94765 6.59055 6.14041 7.6957L7.18381 9.40196ZM12.375 8.05469C15.2568 8.05469 17.3716 8.74368 18.8468 9.99657L20.1415 8.47218C18.1948 6.81882 15.5635 6.05469 12.375 6.05469V8.05469ZM18.8498 9.99915C20.3207 11.2383 21.2468 13.0816 21.5416 15.6586L23.5287 15.4313C23.1907 12.477 22.0895 10.1133 20.1384 8.4696L18.8498 9.99915ZM22.5352 14.5449H17.4023V16.5449H22.5352V14.5449ZM18.3898 15.3869C18.1327 13.7801 17.5362 12.4494 16.4813 11.5626L15.1944 13.0936C15.7567 13.5663 16.2033 14.3801 16.4149 15.7029L18.3898 15.3869ZM16.4868 11.5673C15.455 10.6872 14.0953 10.3086 12.5332 10.3086V12.3086C13.7837 12.3086 14.627 12.6097 15.1889 13.089L16.4868 11.5673ZM12.5332 10.3086C10.4483 10.3086 8.76036 11.1148 7.61659 12.759L9.25841 13.9011C9.98964 12.85 11.0322 12.3086 12.5332 12.3086V10.3086ZM7.61659 12.759C6.51169 14.3473 6.02579 16.5893 6.01368 19.3374L8.01366 19.3462C8.02499 16.774 8.48831 15.0082 9.25841 13.9011L7.61659 12.759ZM6.01367 19.3418V20.9766H8.01367V19.3418H6.01367ZM6.01367 20.9766C6.01367 23.7608 6.53809 26.0383 7.74051 27.6553L9.34543 26.4619C8.50878 25.3367 8.01367 23.5595 8.01367 20.9766H6.01367ZM7.74051 27.6553C8.97924 29.3212 10.7953 30.1152 13.0254 30.1152V28.1152C11.318 28.1152 10.1458 27.5382 9.34543 26.4619L7.74051 27.6553ZM13.0254 30.1152C15.1053 30.1152 16.8461 29.6794 17.9688 28.5567L16.5546 27.1425C15.9898 27.7073 14.9064 28.1152 13.0254 28.1152V30.1152ZM18.2617 27.8496V23.4375H16.2617V27.8496H18.2617ZM17.2617 22.4375H12.4629V24.4375H17.2617V22.4375ZM13.4629 23.4375V19.5527H11.4629V23.4375H13.4629ZM12.4629 20.5527H22.5352V18.5527H12.4629V20.5527ZM21.5352 19.5527V29.7656H23.5352V19.5527H21.5352ZM42.6797 31.8047L42.1529 30.9547L42.1502 30.9564L42.6797 31.8047ZM27.4395 27.4629L26.5384 27.8967L26.5395 27.8989L27.4395 27.4629ZM26.0508 20.9238L25.0508 20.9238L25.0508 20.9286L26.0508 20.9238ZM27.4043 13.0137L26.5012 12.5842L26.5001 12.5865L27.4043 13.0137ZM31.2539 8.60156L31.779 9.4526L31.7807 9.45157L31.2539 8.60156ZM42.627 8.60156L42.0975 9.44993L42.1045 9.45425L42.627 8.60156ZM46.4766 13.0137L45.5713 13.4387L45.5745 13.4453L46.4766 13.0137ZM32.8535 13.4883L33.6724 14.0622L33.6747 14.0589L32.8535 13.4883ZM31.3945 19.5352L30.3945 19.5308V19.5352H31.3945ZM41.0625 26.9531L41.887 27.5191L41.8892 27.5158L41.0625 26.9531ZM42.5039 20.8711L43.5039 20.8755V20.8711H42.5039ZM46.8477 20.7832C46.8477 23.1851 46.4234 25.244 45.6064 26.9854L47.417 27.8349C48.3813 25.7795 48.8477 23.4204 48.8477 20.7832H46.8477ZM45.6064 26.9854C44.792 28.7215 43.6404 30.0329 42.1529 30.9547L43.2065 32.6547C45.0471 31.514 46.4502 29.8957 47.417 27.8349L45.6064 26.9854ZM42.1502 30.9564C40.6725 31.8786 38.9613 32.3516 36.9844 32.3516V34.3516C39.2965 34.3516 41.3822 33.7933 43.2091 32.653L42.1502 30.9564ZM36.9844 32.3516C35.0311 32.3516 33.3223 31.8845 31.8291 30.9696L30.7842 32.675C32.6191 33.7991 34.6955 34.3516 36.9844 34.3516V32.3516ZM31.8291 30.9696C30.3403 30.0575 29.1765 28.7548 28.3394 27.0269L26.5395 27.8989C27.5305 29.9444 28.9448 31.548 30.7842 32.675L31.8291 30.9696ZM28.3405 27.0291C27.5008 25.2852 27.0619 23.2562 27.0508 20.9191L25.0508 20.9286C25.0631 23.5133 25.55 25.8437 26.5385 27.8967L28.3405 27.0291ZM27.0508 20.9238V19.6582H25.0508V20.9238H27.0508ZM27.0508 19.6582C27.0508 17.2583 27.4802 15.1941 28.3085 13.4408L26.5001 12.5865C25.5237 14.6535 25.0508 17.0191 25.0508 19.6582H27.0508ZM28.3074 13.4432C29.1469 11.6779 30.3063 10.3613 31.779 9.4526L30.7288 7.75053C28.8969 8.88088 27.4898 10.5057 26.5012 12.5842L28.3074 13.4432ZM31.7807 9.45157C33.2725 8.52708 34.9853 8.05469 36.9492 8.05469V6.05469C34.6475 6.05469 32.5635 6.61355 30.7271 7.75155L31.7807 9.45157ZM36.9492 8.05469C38.9133 8.05469 40.6189 8.52709 42.0975 9.4499L43.1564 7.75323C41.3303 6.61354 39.2508 6.05469 36.9492 6.05469V8.05469ZM42.1045 9.45425C43.5873 10.3627 44.7445 11.6775 45.5714 13.4387L47.3818 12.5887C46.404 10.5061 44.9947 8.87948 43.1494 7.74887L42.1045 9.45425ZM45.5745 13.4453C46.4133 15.1981 46.8477 17.2549 46.8477 19.6406H48.8477C48.8477 17.0107 48.368 14.6495 47.3786 12.582L45.5745 13.4453ZM46.8477 19.6406V20.7832H48.8477V19.6406H46.8477ZM43.5039 19.623C43.5039 16.8459 43.0112 14.5715 41.8859 12.9384L40.2391 14.0733C41.0357 15.2293 41.5039 17.033 41.5039 19.623H43.5039ZM41.8859 12.9384C40.7272 11.2568 39.0392 10.4141 36.9492 10.4141V12.4141C38.4218 12.4141 39.4759 12.9658 40.2391 14.0733L41.8859 12.9384ZM36.9492 10.4141C34.8719 10.4141 33.1912 11.25 32.0323 12.9176L33.6747 14.0589C34.4377 12.9609 35.4875 12.4141 36.9492 12.4141V10.4141ZM32.0346 12.9143C30.9062 14.5244 30.4067 16.7773 30.3945 19.5308L32.3945 19.5396C32.4058 16.9727 32.879 15.1943 33.6724 14.0622L32.0346 12.9143ZM30.3945 19.5352V20.7832H32.3945V19.5352H30.3945ZM30.3945 20.7832C30.3945 23.4999 30.8909 25.7504 32.0039 27.4199L33.668 26.3105C32.8591 25.0972 32.3945 23.293 32.3945 20.7832H30.3945ZM32.0039 27.4199C33.1594 29.1532 34.8621 30.0273 36.9844 30.0273V28.0273C35.4973 28.0273 34.4344 27.4601 33.668 26.3105L32.0039 27.4199ZM36.9844 30.0273C39.0619 30.0273 40.7394 29.1908 41.8869 27.5191L40.2381 26.3872C39.4872 27.481 38.4459 28.0273 36.9844 28.0273V30.0273ZM41.8892 27.5158C42.998 25.8867 43.4918 23.629 43.5039 20.8755L41.5039 20.8667C41.4926 23.4335 41.0254 25.2305 40.2358 26.3904L41.8892 27.5158ZM43.5039 20.8711V19.623H41.5039V20.8711H43.5039ZM69.4336 11.6777V12.6777H70.4336V11.6777H69.4336ZM61.5938 11.6777V10.6777H60.5938V11.6777H61.5938ZM61.5938 33V34H62.5938V33H61.5938ZM56.3203 33H55.3203V34H56.3203V33ZM56.3203 11.6777H57.3203V10.6777H56.3203V11.6777ZM48.5859 11.6777H47.5859V12.6777H48.5859V11.6777ZM48.5859 7.40625V6.40625H47.5859V7.40625H48.5859ZM69.4336 7.40625H70.4336V6.40625H69.4336V7.40625ZM69.4336 10.6777H61.5938V12.6777H69.4336V10.6777ZM60.5938 11.6777V33H62.5938V11.6777H60.5938ZM61.5938 32H56.3203V34H61.5938V32ZM57.3203 33V11.6777H55.3203V33H57.3203ZM56.3203 10.6777H48.5859V12.6777H56.3203V10.6777ZM49.5859 11.6777V7.40625H47.5859V11.6777H49.5859ZM48.5859 8.40625H69.4336V6.40625H48.5859V8.40625ZM68.4336 7.40625V11.6777H70.4336V7.40625H68.4336ZM87.8203 31.8047L87.2935 30.9547L87.2909 30.9564L87.8203 31.8047ZM72.5801 27.4629L71.6791 27.8967L71.6801 27.8989L72.5801 27.4629ZM71.1914 20.9238L70.1914 20.9238L70.1914 20.9286L71.1914 20.9238ZM72.5449 13.0137L71.6419 12.5842L71.6407 12.5865L72.5449 13.0137ZM76.3945 8.60156L76.9196 9.4526L76.9213 9.45157L76.3945 8.60156ZM87.7676 8.60156L87.2381 9.44993L87.2452 9.45425L87.7676 8.60156ZM91.6172 13.0137L90.712 13.4387L90.7151 13.4453L91.6172 13.0137ZM77.9941 13.4883L78.8131 14.0622L78.8153 14.0589L77.9941 13.4883ZM76.5352 19.5352L75.5352 19.5308V19.5352H76.5352ZM86.2031 26.9531L87.0276 27.5191L87.0298 27.5158L86.2031 26.9531ZM87.6445 20.8711L88.6445 20.8755V20.8711H87.6445ZM91.9883 20.7832C91.9883 23.1851 91.564 25.244 90.747 26.9854L92.5577 27.8349C93.5219 25.7795 93.9883 23.4204 93.9883 20.7832H91.9883ZM90.747 26.9854C89.9326 28.7215 88.781 30.0329 87.2935 30.9547L88.3471 32.6547C90.1877 31.514 91.5909 29.8957 92.5577 27.8349L90.747 26.9854ZM87.2909 30.9564C85.8131 31.8786 84.1019 32.3516 82.125 32.3516V34.3516C84.4372 34.3516 86.5228 33.7933 88.3498 32.653L87.2909 30.9564ZM82.125 32.3516C80.1717 32.3516 78.4629 31.8845 76.9697 30.9696L75.9248 32.675C77.7597 33.7991 79.8361 34.3516 82.125 34.3516V32.3516ZM76.9697 30.9696C75.4809 30.0575 74.3172 28.7548 73.48 27.0269L71.6801 27.8989C72.6711 29.9444 74.0855 31.548 75.9248 32.675L76.9697 30.9696ZM73.4811 27.0291C72.6414 25.2852 72.2025 23.2562 72.1914 20.9191L70.1914 20.9286C70.2037 23.5133 70.6906 25.8437 71.6791 27.8967L73.4811 27.0291ZM72.1914 20.9238V19.6582H70.1914V20.9238H72.1914ZM72.1914 19.6582C72.1914 17.2583 72.6209 15.1941 73.4491 13.4408L71.6407 12.5865C70.6643 14.6535 70.1914 17.0191 70.1914 19.6582H72.1914ZM73.448 13.4432C74.2876 11.6779 75.4469 10.3613 76.9196 9.4526L75.8694 7.75053C74.0375 8.88088 72.6304 10.5057 71.6419 12.5842L73.448 13.4432ZM76.9213 9.45157C78.4131 8.52708 80.1259 8.05469 82.0898 8.05469V6.05469C79.7882 6.05469 77.7041 6.61355 75.8678 7.75155L76.9213 9.45157ZM82.0898 8.05469C84.0539 8.05469 85.7595 8.52709 87.2381 9.4499L88.297 7.75323C86.4709 6.61354 84.3914 6.05469 82.0898 6.05469V8.05469ZM87.2452 9.45425C88.7279 10.3627 89.8851 11.6775 90.712 13.4387L92.5224 12.5887C91.5446 10.5061 90.1354 8.87948 88.29 7.74887L87.2452 9.45425ZM90.7151 13.4453C91.5539 15.1981 91.9883 17.2549 91.9883 19.6406H93.9883C93.9883 17.0107 93.5086 14.6495 92.5192 12.582L90.7151 13.4453ZM91.9883 19.6406V20.7832H93.9883V19.6406H91.9883ZM88.6445 19.623C88.6445 16.8459 88.1518 14.5715 87.0266 12.9384L85.3797 14.0733C86.1763 15.2293 86.6445 17.033 86.6445 19.623H88.6445ZM87.0266 12.9384C85.8678 11.2568 84.1798 10.4141 82.0898 10.4141V12.4141C83.5624 12.4141 84.6166 12.9658 85.3797 14.0733L87.0266 12.9384ZM82.0898 10.4141C80.0125 10.4141 78.3318 11.25 77.173 12.9176L78.8153 14.0589C79.5784 12.9609 80.6281 12.4141 82.0898 12.4141V10.4141ZM77.1752 12.9143C76.0468 14.5244 75.5473 16.7773 75.5352 19.5308L77.5351 19.5396C77.5465 16.9727 78.0196 15.1943 78.813 14.0622L77.1752 12.9143ZM75.5352 19.5352V20.7832H77.5352V19.5352H75.5352ZM75.5352 20.7832C75.5352 23.4999 76.0315 25.7504 77.1445 27.4199L78.8086 26.3105C77.9997 25.0972 77.5352 23.293 77.5352 20.7832H75.5352ZM77.1445 27.4199C78.3 29.1532 80.0027 30.0273 82.125 30.0273V28.0273C80.6379 28.0273 79.575 27.4601 78.8086 26.3105L77.1445 27.4199ZM82.125 30.0273C84.2026 30.0273 85.88 29.1908 87.0276 27.5191L85.3787 26.3872C84.6278 27.481 83.5865 28.0273 82.125 28.0273V30.0273ZM87.0298 27.5158C88.1387 25.8867 88.6324 23.629 88.6445 20.8755L86.6445 20.8667C86.6332 23.4335 86.166 25.2305 85.3765 26.3904L87.0298 27.5158ZM88.6445 20.8711V19.623H86.6445V20.8711H88.6445Z" fill="white"/>
</svg>
